<?xml version="1.0" encoding="utf-8"?>
<!-- Generator: Adobe Illustrator 25.2.3, SVG Export Plug-In . SVG Version: 6.00 Build 0)  -->
<svg version="1.1" xmlns="http://www.w3.org/2000/svg" xmlns:xlink="http://www.w3.org/1999/xlink" x="0px" y="0px"
	 viewBox="0 0 1080 1080" style="enable-background:new 0 0 1080 1080;" xml:space="preserve">
<style type="text/css">
	.st0{opacity:0.81;}
	.st1{fill:#8C8C8C;}
	.st2{display:none;}
	.st3{display:inline;opacity:0.21;}
	.st4{fill:#FFFFFF;}
</style>
<g id="Camada_3">
</g>
<g id="Camada_3_cópia" class="st0">
	<g id="VERTICAL">
		<g>
			<polygon class="st1" points="570.79,440.06 509.28,440.05 485.56,0 528.28,0 531.44,55.05 548.44,55.05 551.42,0 594.44,0.01 			
				"/>
			<polygon class="st1" points="509.22,639.94 570.72,639.95 594.44,1080 551.72,1080 548.56,1024.95 531.56,1024.95 528.58,1080 
				485.56,1079.99 			"/>
		</g>
	</g>
	<g id="HORIZONTAL">
		<g>
			<polygon class="st1" points="639.94,570.79 639.95,509.28 1080,485.56 1080,528.28 1024.95,531.44 1024.95,548.44 1080,551.42 
				1079.99,594.44 			"/>
			<polygon class="st1" points="440.06,509.22 440.05,570.72 0,594.44 0,551.72 55.05,548.56 55.05,531.56 0,528.58 0.01,485.56 			
				"/>
		</g>
	</g>
	<g id="Camada_11">
	</g>
	<g id="Camada_10">
	</g>
	<g id="Camada_9">
	</g>
	<g id="Camada_8">
	</g>
	<g id="Camada_7">
	</g>
	<g id="Camada_6">
	</g>
</g>
<g id="Camada_1" class="st2">
	<g id="Camada_2" class="st3">
	</g>
</g>
<g id="INNER_WHITE_MARK_vert_down">
	<g id="INNER_WHITE_MARK">
	</g>
	<g id="INNER_WHITE_MARK_vert_down_cópia">
		<g>
			<path class="st4" d="M534.33,984l11.44,0c8.08-45,14.94-94.03,19.53-146.67c6.25-71.66,7.25-137.79,5.25-197.07h-61
				c-2.11,59.06-1.21,125.09,5.05,196.74C519.21,889.85,526.15,938.99,534.33,984z"/>
			<path class="st4" d="M545.7,95.1h-11.44c-8.08,45-14.94,94.03-19.53,146.67c-6.25,71.66-7.25,137.79-5.25,197.07h61
				c2.11-59.06,1.21-125.09-5.05-196.74C560.82,189.26,553.88,140.12,545.7,95.1z"/>
			<path class="st4" d="M95.57,534.33l0,11.44c45,8.08,94.03,14.94,146.67,19.53c71.66,6.25,137.79,7.25,197.07,5.25l0-61
				c-59.06-2.11-125.09-1.21-196.74,5.05C189.72,519.21,140.58,526.15,95.57,534.33z"/>
		</g>
	</g>
	<g id="INNER_WHITE_MARK_cópia">
		<path class="st4" d="M984.46,545.67v-11.44c-45-8.08-94.03-14.94-146.67-19.53c-71.66-6.25-137.79-7.25-197.07-5.25v61
			c59.06,2.11,125.09,1.21,196.74-5.05C890.31,560.79,939.45,553.85,984.46,545.67z"/>
	</g>
</g>
</svg>