<?xml version="1.0" encoding="utf-8"?>
<!-- Generator: Adobe Illustrator 26.0.3, SVG Export Plug-In . SVG Version: 6.00 Build 0)  -->
<svg version="1.1" xmlns="http://www.w3.org/2000/svg" xmlns:xlink="http://www.w3.org/1999/xlink" x="0px" y="0px"
	 viewBox="0 0 1080 1440" style="enable-background:new 0 0 1080 1440;" xml:space="preserve">
<style type="text/css">
	.st0{fill:#BABABA;}
	.st1{fill:url(#Left_Shading_Line_Exit_00000127036720069688686570000012311008910288309152_);}
	.st2{fill:url(#Right_Shading_Line_Exit_00000070119097469383663670000014557004798027777176_);}
	.st3{fill:url(#Left_Shading_Line_Top_00000122702421810202825900000011613554821610835094_);}
	.st4{fill:url(#Right_Shading_Line_Top_00000103264610354443645770000002808213681351184021_);}
	.st5{fill:url(#SVGID_1_);}
	.st6{fill:url(#SVGID_00000079482428337414975540000013662193629568883119_);}
	.st7{fill:url(#RIGHT_SIDE_SHADE_00000155123218364564878350000011930104160337105556_);}
	.st8{fill:url(#LEFT_SIDE_SHADE_00000070076058016687797550000002113064725299087009_);}
	.st9{fill:url(#Right_Shading_Exit_00000177459652834248051430000001016077519718205870_);}
	.st10{fill:url(#Left_Shading_Exit_00000011715735696723268140000013384061959030429076_);}
	.st11{fill:url(#Outer_Cowling_00000138568971268433490800000004522856261150953352_);}
	.st12{fill:url(#Left_Entrance_00000148623285824168236980000006524208048208809648_);}
	.st13{fill:url(#Right_Entrance_00000083777867846154872850000014132321579879251090_);}
	.st14{fill:url(#Left_Shading_Line_Exit_00000011744053343205018740000000530190860595775909_);}
	.st15{fill:url(#Right_Shading_Line_Exit_00000092431378005970639190000017526889760792742317_);}
	.st16{fill:url(#Left_Shading_Line_Top_00000135667810314516377530000006077085317901726911_);}
	.st17{fill:url(#Right_Shading_Line_Top_00000111877765336847251330000005099780436000163232_);}
	.st18{fill:url(#SVGID_00000137113783365676714860000017467717467395550088_);}
	.st19{fill:url(#SVGID_00000029006981955728318750000012942947102753707694_);}
	.st20{fill:url(#RIGHT_SIDE_SHADE_00000160151465175728644550000008298343089923698848_);}
	.st21{fill:url(#LEFT_SIDE_SHADE_00000119075375380695304720000009462757671969860536_);}
	.st22{fill:url(#Right_Shading_Exit_00000153679436732273700940000013512591939715995787_);}
	.st23{fill:url(#Left_Shading_Exit_00000174570185608921053120000005575427735581871525_);}
	.st24{fill:url(#Outer_Cowling_00000096045221823169443810000013695468130378046594_);}
	.st25{fill:url(#Left_Entrance_00000090260014824590270150000007246708139607090341_);}
	.st26{fill:url(#Right_Entrance_00000008113426334751522620000016766302036412869047_);}
</style>
<g id="ENGINE_LEFT">
	<path id="Grey_Outline_or_Background" class="st0" d="M162.6199951,178.6599731v89.0200195
		c0,43.4699707-20.2799683,57.460022-30.1199951,59.8399658c-2.1699829,0.5200195-5.5100098,0.9400024-9.3900146,1.2700195
		c0,21.039978-10.2999878,41.210022-12.4400024,42.8699951c-2.1399536,1.6600342-8.1201019,3.5599976-21.6699829,3.5599976
		s-19.5300293-1.8999634-21.6699829-3.5599976C65.1900024,370,54.8900146,349.8299561,54.8900146,328.789978
		c-3.8800049-0.3300171-7.2200317-0.75-9.3900146-1.2700195c-9.8400269-2.3799438-30.1199951-16.3699951-30.1199951-59.8399658
		v-89.0200195c0,0,1.1900024-31.6300049,39.5100098-37.4899902c20.0199585-2.4000244,48.2000122-2.4000244,68.2199707,0
		C161.4299927,147.0299683,162.6199951,178.6599731,162.6199951,178.6599731z"/>
	
		<linearGradient id="Left_Shading_Line_Exit_00000142156276953610254190000010472873009411618460_" gradientUnits="userSpaceOnUse" x1="90.7583313" y1="329.9716797" x2="65.2985916" y2="329.9716797">
		<stop  offset="0.0204661" style="stop-color:#575757"/>
		<stop  offset="0.5938905" style="stop-color:#949494"/>
		<stop  offset="1" style="stop-color:#BABABA"/>
	</linearGradient>
	
		<rect id="Left_Shading_Line_Exit" x="63.5402603" y="304.2001343" style="fill:url(#Left_Shading_Line_Exit_00000142156276953610254190000010472873009411618460_);" width="25.4597397" height="51.5431023"/>
	
		<linearGradient id="Right_Shading_Line_Exit_00000035490627449590173320000013676797645853428376_" gradientUnits="userSpaceOnUse" x1="89" y1="329.9716797" x2="114.4597397" y2="329.9716797">
		<stop  offset="0.0204661" style="stop-color:#575757"/>
		<stop  offset="0.5938905" style="stop-color:#949494"/>
		<stop  offset="1" style="stop-color:#BABABA"/>
	</linearGradient>
	
		<rect id="Right_Shading_Line_Exit" x="89" y="304.2001343" style="fill:url(#Right_Shading_Line_Exit_00000035490627449590173320000013676797645853428376_);" width="25.4597397" height="51.5431023"/>
	
		<linearGradient id="Left_Shading_Line_Top_00000114780966013650780230000009589033694283643778_" gradientUnits="userSpaceOnUse" x1="84.9386063" y1="186.9716797" x2="7.0699162" y2="186.9716797">
		<stop  offset="0.1054897" style="stop-color:#FFFFFF"/>
		<stop  offset="0.3062418" style="stop-color:#E0E0E0"/>
		<stop  offset="0.5802954" style="stop-color:#BABABA"/>
	</linearGradient>
	
		<rect id="Left_Shading_Line_Top" x="39.7517586" y="161.200119" style="fill:url(#Left_Shading_Line_Top_00000114780966013650780230000009589033694283643778_);" width="49.2482414" height="51.5431023"/>
	
		<linearGradient id="Right_Shading_Line_Top_00000166650983990266770370000001553256322769625505_" gradientUnits="userSpaceOnUse" x1="89" y1="186.9716797" x2="138.2033539" y2="186.9716797">
		<stop  offset="0.1261933" style="stop-color:#FFFFFF"/>
		<stop  offset="0.4956464" style="stop-color:#E0E0E0"/>
		<stop  offset="1" style="stop-color:#BABABA"/>
	</linearGradient>
	
		<rect id="Right_Shading_Line_Top" x="89" y="161.200119" style="fill:url(#Right_Shading_Line_Top_00000166650983990266770370000001553256322769625505_);" width="51.5431023" height="51.5431023"/>
	<linearGradient id="SVGID_1_" gradientUnits="userSpaceOnUse" x1="89" y1="174.7592773" x2="153.2891083" y2="174.7592773">
		<stop  offset="0" style="stop-color:#828282"/>
		<stop  offset="0.8407356" style="stop-color:#B1B1B1"/>
		<stop  offset="1" style="stop-color:#BABABA"/>
	</linearGradient>
	<path class="st5" d="M156.3462219,166.4645844c0,0-1.5457306,21.7553253-67.3462219,21.7553253v-16.5530701
		c0,0,49.7490082,0.0985107,64.7127686-10.3682098L156.3462219,166.4645844z"/>
	
		<linearGradient id="SVGID_00000036946312770108503230000009805362829912997554_" gradientUnits="userSpaceOnUse" x1="128.0175323" y1="174.7592773" x2="192.3066254" y2="174.7592773" gradientTransform="matrix(-1 0 0 1 217.1275177 0)">
		<stop  offset="0" style="stop-color:#828282"/>
		<stop  offset="0.8407356" style="stop-color:#B1B1B1"/>
		<stop  offset="1" style="stop-color:#BABABA"/>
	</linearGradient>
	<path style="fill:url(#SVGID_00000036946312770108503230000009805362829912997554_);" d="M21.7637596,166.4645844
		c0,0,1.5457382,21.7553253,67.3462219,21.7553253v-16.5530701c0,0-49.749012,0.0985107-64.7127686-10.3682098
		L21.7637596,166.4645844z"/>
	
		<linearGradient id="RIGHT_SIDE_SHADE_00000170243137075534191040000012693518611274573229_" gradientUnits="userSpaceOnUse" x1="89.1062317" y1="246.7229614" x2="241.9008789" y2="246.7229614">
		<stop  offset="0.1224824" style="stop-color:#FFFFFF"/>
		<stop  offset="0.5083549" style="stop-color:#898989"/>
		<stop  offset="0.8486691" style="stop-color:#272727"/>
		<stop  offset="1" style="stop-color:#000000"/>
	</linearGradient>
	<path id="RIGHT_SIDE_SHADE" style="fill:url(#RIGHT_SIDE_SHADE_00000170243137075534191040000012693518611274573229_);" d="
		M160.636261,180.854599v86.4900055c0,42.2399902-19.710022,55.8299561-29.2700195,58.1399536
		c-2.1099854,0.5100098-5.3511734,1.1767578-9.1211319,1.4967651H89.1062317V177.4445648
		c28.5700073,0,53.5700073-4.4000244,67.2399902-10.9799805C160.386261,174.1745453,160.636261,180.854599,160.636261,180.854599z"
		/>
	
		<linearGradient id="LEFT_SIDE_SHADE_00000165209490476082016460000000297118778877724312_" gradientUnits="userSpaceOnUse" x1="83.6209564" y1="246.7229614" x2="-125.8742218" y2="246.7229614">
		<stop  offset="0.0666867" style="stop-color:#FFFFFF"/>
		<stop  offset="0.0727816" style="stop-color:#FCFCFC"/>
		<stop  offset="0.2411216" style="stop-color:#A4A4A4"/>
		<stop  offset="0.389296" style="stop-color:#5D5D5D"/>
		<stop  offset="0.5117906" style="stop-color:#2B2B2B"/>
		<stop  offset="0.6040074" style="stop-color:#0C0C0C"/>
		<stop  offset="0.6553807" style="stop-color:#000000"/>
	</linearGradient>
	<path id="LEFT_SIDE_SHADE" style="fill:url(#LEFT_SIDE_SHADE_00000165209490476082016460000000297118778877724312_);" d="
		M89.1062317,177.4445648v149.5367584l-33.1400108-0.2567139c-3.7699585-0.3200073-7.0100098-0.7300415-9.1199951-1.2400513
		c-9.5599976-2.3099976-29.2700195-15.8999634-29.2700195-58.1399536V180.854599c0,0,0.25-6.6800537,4.2900391-14.3900146
		C35.5362282,173.0445404,60.5362282,177.4445648,89.1062317,177.4445648z"/>
	
		<linearGradient id="Right_Shading_Exit_00000175308951371598562250000013793277788638720921_" gradientUnits="userSpaceOnUse" x1="89.0000076" y1="351.2965393" x2="142.4836578" y2="351.2965393">
		<stop  offset="0.1224824" style="stop-color:#FFFFFF"/>
		<stop  offset="0.5083549" style="stop-color:#898989"/>
		<stop  offset="0.8486691" style="stop-color:#272727"/>
		<stop  offset="1" style="stop-color:#000000"/>
	</linearGradient>
	<path id="Right_Shading_Exit" style="fill:url(#Right_Shading_Exit_00000175308951371598562250000013793277788638720921_);" d="
		M89.0000076,373.2946777v-43.9962463l32.1334,0.064209c0,0-1.0155411,22.8407288-11.7874908,40.2205811
		C108.124649,371.5167847,99.3829803,373.2946777,89.0000076,373.2946777z"/>
	
		<linearGradient id="Left_Shading_Exit_00000099629077491553333980000003715661648895973543_" gradientUnits="userSpaceOnUse" x1="86.212326" y1="351.2965393" x2="32.4351997" y2="351.2965393">
		<stop  offset="0.1224824" style="stop-color:#FFFFFF"/>
		<stop  offset="0.5083549" style="stop-color:#898989"/>
		<stop  offset="0.8486691" style="stop-color:#272727"/>
		<stop  offset="1" style="stop-color:#000000"/>
	</linearGradient>
	<path id="Left_Shading_Exit" style="fill:url(#Left_Shading_Exit_00000099629077491553333980000003715661648895973543_);" d="
		M89,373.2946777v-43.9962463l-32.1334,0.064209c0,0,1.0155411,22.8407288,11.7874985,40.2205505
		C69.8753586,371.5167847,78.6170349,373.2946777,89,373.2946777z"/>
	
		<linearGradient id="Outer_Cowling_00000003791422498055103620000004913192444985499064_" gradientUnits="userSpaceOnUse" x1="89" y1="105.0154419" x2="89" y2="219.1765442">
		<stop  offset="0.2347237" style="stop-color:#5E5E5E"/>
		<stop  offset="0.2858903" style="stop-color:#636363"/>
		<stop  offset="0.3468655" style="stop-color:#727272"/>
		<stop  offset="0.4128516" style="stop-color:#8A8A8A"/>
		<stop  offset="0.4818645" style="stop-color:#ABABAB"/>
		<stop  offset="0.5387074" style="stop-color:#CCCCCC"/>
	</linearGradient>
	
		<ellipse id="Outer_Cowling" style="fill:url(#Outer_Cowling_00000003791422498055103620000004913192444985499064_);" cx="89" cy="153.8439484" rx="57.080555" ry="12.6206446"/>
	
		<linearGradient id="Left_Entrance_00000065788814043462104570000014562903206122474634_" gradientUnits="userSpaceOnUse" x1="34.3200073" y1="153.1949768" x2="89.1099854" y2="153.1949768">
		<stop  offset="0.0367289" style="stop-color:#3D3D3D"/>
		<stop  offset="0.1873613" style="stop-color:#424242"/>
		<stop  offset="0.3669014" style="stop-color:#515151"/>
		<stop  offset="0.5611393" style="stop-color:#696969"/>
		<stop  offset="0.7657919" style="stop-color:#8A8A8A"/>
		<stop  offset="0.9767153" style="stop-color:#B5B5B5"/>
		<stop  offset="1" style="stop-color:#BABABA"/>
	</linearGradient>
	
		<path id="Left_Entrance_00000144340307387650104400000000460720136996906654_" style="fill:url(#Left_Entrance_00000065788814043462104570000014562903206122474634_);" d="
		M89.1099854,142.7199707v20.9500122c-30.2600098,0-54.789978-4.6900024-54.789978-10.4699707
		C34.3200073,147.4099731,58.8499756,142.7199707,89.1099854,142.7199707z"/>
	
		<linearGradient id="Right_Entrance_00000163073809381971581830000004921241453097042851_" gradientUnits="userSpaceOnUse" x1="11.8471079" y1="153.1949768" x2="66.637085" y2="153.1949768" gradientTransform="matrix(-1 0 0 1 155.7470703 0)">
		<stop  offset="0.0367289" style="stop-color:#3D3D3D"/>
		<stop  offset="0.1873613" style="stop-color:#424242"/>
		<stop  offset="0.3669014" style="stop-color:#515151"/>
		<stop  offset="0.5611393" style="stop-color:#696969"/>
		<stop  offset="0.7657919" style="stop-color:#8A8A8A"/>
		<stop  offset="0.9767153" style="stop-color:#B5B5B5"/>
		<stop  offset="1" style="stop-color:#BABABA"/>
	</linearGradient>
	<path id="Right_Entrance" style="fill:url(#Right_Entrance_00000163073809381971581830000004921241453097042851_);" d="
		M89.1099854,142.7199707v20.9500122c30.2600098,0,54.789978-4.6900024,54.789978-10.4699707
		C143.8999634,147.4099731,119.3699951,142.7199707,89.1099854,142.7199707z"/>
</g>
<g id="ENGINE_LEFT_cópia_2">
	<path id="Grey_Outline_or_Background_00000053547325487952742230000012766357263450007219_" class="st0" d="
		M1065.6199951,178.6599731v89.0200195c0,43.4699707-20.2799072,57.460022-30.1199951,59.8399658
		c-2.1699219,0.5200195-5.5100098,0.9400024-9.3900146,1.2700195c0,21.039978-10.2999878,41.210022-12.4400024,42.8699951
		c-2.1399536,1.6600342-8.1201172,3.5599976-21.6699829,3.5599976s-19.5300293-1.8999634-21.6699829-3.5599976
		C968.1900024,370,957.8900146,349.8299561,957.8900146,328.789978c-3.8800049-0.3300171-7.2200317-0.75-9.3900146-1.2700195
		c-9.8400269-2.3799438-30.1199951-16.3699951-30.1199951-59.8399658v-89.0200195c0,0,1.1900024-31.6300049,39.5100098-37.4899902
		c20.0199585-2.4000244,48.2000122-2.4000244,68.2199707,0
		C1064.4299316,147.0299683,1065.6199951,178.6599731,1065.6199951,178.6599731z"/>
	
		<linearGradient id="Left_Shading_Line_Exit_00000091016673400265524190000013446675063256313485_" gradientUnits="userSpaceOnUse" x1="993.7583618" y1="329.9716797" x2="968.298584" y2="329.9716797">
		<stop  offset="0.0204661" style="stop-color:#575757"/>
		<stop  offset="0.5938905" style="stop-color:#949494"/>
		<stop  offset="1" style="stop-color:#BABABA"/>
	</linearGradient>
	
		<rect id="Left_Shading_Line_Exit_00000083090314466344409920000006515051800248225168_" x="966.5402832" y="304.2001343" style="fill:url(#Left_Shading_Line_Exit_00000091016673400265524190000013446675063256313485_);" width="25.4597397" height="51.5431023"/>
	
		<linearGradient id="Right_Shading_Line_Exit_00000037661798932071513220000005983043661421217962_" gradientUnits="userSpaceOnUse" x1="992" y1="329.9716797" x2="1017.4597168" y2="329.9716797">
		<stop  offset="0.0204661" style="stop-color:#575757"/>
		<stop  offset="0.5938905" style="stop-color:#949494"/>
		<stop  offset="1" style="stop-color:#BABABA"/>
	</linearGradient>
	
		<rect id="Right_Shading_Line_Exit_00000093896291685874708630000007917049408130547330_" x="992" y="304.2001343" style="fill:url(#Right_Shading_Line_Exit_00000037661798932071513220000005983043661421217962_);" width="25.4597397" height="51.5431023"/>
	
		<linearGradient id="Left_Shading_Line_Top_00000026157317757772663510000006032573295187040182_" gradientUnits="userSpaceOnUse" x1="987.9385986" y1="186.9716797" x2="910.0699463" y2="186.9716797">
		<stop  offset="0.1054897" style="stop-color:#FFFFFF"/>
		<stop  offset="0.3062418" style="stop-color:#E0E0E0"/>
		<stop  offset="0.5802954" style="stop-color:#BABABA"/>
	</linearGradient>
	
		<rect id="Left_Shading_Line_Top_00000069393031585992005150000006516271779666704272_" x="942.75177" y="161.200119" style="fill:url(#Left_Shading_Line_Top_00000026157317757772663510000006032573295187040182_);" width="49.2482414" height="51.5431023"/>
	
		<linearGradient id="Right_Shading_Line_Top_00000109752275287397363720000005915483381265006728_" gradientUnits="userSpaceOnUse" x1="992" y1="186.9716797" x2="1041.2033691" y2="186.9716797">
		<stop  offset="0.1261933" style="stop-color:#FFFFFF"/>
		<stop  offset="0.4956464" style="stop-color:#E0E0E0"/>
		<stop  offset="1" style="stop-color:#BABABA"/>
	</linearGradient>
	
		<rect id="Right_Shading_Line_Top_00000079449112335278084280000015121826625421132423_" x="992" y="161.200119" style="fill:url(#Right_Shading_Line_Top_00000109752275287397363720000005915483381265006728_);" width="51.5431023" height="51.5431023"/>
	
		<linearGradient id="SVGID_00000038399088541237391210000002904984969105081018_" gradientUnits="userSpaceOnUse" x1="992" y1="174.7592773" x2="1056.2890625" y2="174.7592773">
		<stop  offset="0" style="stop-color:#828282"/>
		<stop  offset="0.8407356" style="stop-color:#B1B1B1"/>
		<stop  offset="1" style="stop-color:#BABABA"/>
	</linearGradient>
	<path style="fill:url(#SVGID_00000038399088541237391210000002904984969105081018_);" d="M1059.3461914,166.4645844
		c0,0-1.5456543,21.7553253-67.3461914,21.7553253v-16.5530701c0,0,49.7490234,0.0985107,64.7127686-10.3682098
		L1059.3461914,166.4645844z"/>
	
		<linearGradient id="SVGID_00000116957647993862627600000007979496383154666928_" gradientUnits="userSpaceOnUse" x1="-774.9824829" y1="174.7592773" x2="-710.6933594" y2="174.7592773" gradientTransform="matrix(-1 0 0 1 217.1275177 0)">
		<stop  offset="0" style="stop-color:#828282"/>
		<stop  offset="0.8407356" style="stop-color:#B1B1B1"/>
		<stop  offset="1" style="stop-color:#BABABA"/>
	</linearGradient>
	<path style="fill:url(#SVGID_00000116957647993862627600000007979496383154666928_);" d="M924.7637329,166.4645844
		c0,0,1.5457764,21.7553253,67.3462524,21.7553253v-16.5530701c0,0-49.7490234,0.0985107-64.7127686-10.3682098
		L924.7637329,166.4645844z"/>
	
		<linearGradient id="RIGHT_SIDE_SHADE_00000099659221644614370050000006279175326048647830_" gradientUnits="userSpaceOnUse" x1="992.1062622" y1="246.7229614" x2="1144.9008789" y2="246.7229614">
		<stop  offset="0.1224824" style="stop-color:#FFFFFF"/>
		<stop  offset="0.5083549" style="stop-color:#898989"/>
		<stop  offset="0.8486691" style="stop-color:#272727"/>
		<stop  offset="1" style="stop-color:#000000"/>
	</linearGradient>
	
		<path id="RIGHT_SIDE_SHADE_00000086668217548035765360000001874349863117302191_" style="fill:url(#RIGHT_SIDE_SHADE_00000099659221644614370050000006279175326048647830_);" d="
		M1063.6362305,180.854599v86.4900055c0,42.2399902-19.7099609,55.8299561-29.2700195,58.1399536
		c-2.1099854,0.5100098-5.3511963,1.1767578-9.1210938,1.4967651h-33.138855V177.4445648
		c28.5700073,0,53.5700073-4.4000244,67.2399292-10.9799805
		C1063.3862305,174.1745453,1063.6362305,180.854599,1063.6362305,180.854599z"/>
	
		<linearGradient id="LEFT_SIDE_SHADE_00000057865811091830953610000007126400006078824627_" gradientUnits="userSpaceOnUse" x1="986.6209717" y1="246.7229614" x2="777.1257935" y2="246.7229614">
		<stop  offset="0.0666867" style="stop-color:#FFFFFF"/>
		<stop  offset="0.0727816" style="stop-color:#FCFCFC"/>
		<stop  offset="0.2411216" style="stop-color:#A4A4A4"/>
		<stop  offset="0.389296" style="stop-color:#5D5D5D"/>
		<stop  offset="0.5117906" style="stop-color:#2B2B2B"/>
		<stop  offset="0.6040074" style="stop-color:#0C0C0C"/>
		<stop  offset="0.6553807" style="stop-color:#000000"/>
	</linearGradient>
	
		<path id="LEFT_SIDE_SHADE_00000064354153087151143710000017604345475879699344_" style="fill:url(#LEFT_SIDE_SHADE_00000057865811091830953610000007126400006078824627_);" d="
		M992.1062622,177.4445648v149.5367584l-33.1400146-0.2567139c-3.7699585-0.3200073-7.0100098-0.7300415-9.1199951-1.2400513
		c-9.5599976-2.3099976-29.2700195-15.8999634-29.2700195-58.1399536V180.854599c0,0,0.25-6.6800537,4.2900391-14.3900146
		C938.5362549,173.0445404,963.5362549,177.4445648,992.1062622,177.4445648z"/>
	
		<linearGradient id="Right_Shading_Exit_00000083052025884429681730000018218690796795758490_" gradientUnits="userSpaceOnUse" x1="992" y1="351.2965393" x2="1045.4836426" y2="351.2965393">
		<stop  offset="0.1224824" style="stop-color:#FFFFFF"/>
		<stop  offset="0.5083549" style="stop-color:#898989"/>
		<stop  offset="0.8486691" style="stop-color:#272727"/>
		<stop  offset="1" style="stop-color:#000000"/>
	</linearGradient>
	
		<path id="Right_Shading_Exit_00000160899433590385858440000015362691898222858383_" style="fill:url(#Right_Shading_Exit_00000083052025884429681730000018218690796795758490_);" d="
		M992,373.2946777v-43.9962463l32.1334229,0.064209c0,0-1.015564,22.8407288-11.7875366,40.2205811
		C1011.1246338,371.5167847,1002.3829956,373.2946777,992,373.2946777z"/>
	
		<linearGradient id="Left_Shading_Exit_00000005249608995401138720000015309097323859417016_" gradientUnits="userSpaceOnUse" x1="989.2123413" y1="351.2965393" x2="935.4351807" y2="351.2965393">
		<stop  offset="0.1224824" style="stop-color:#FFFFFF"/>
		<stop  offset="0.5083549" style="stop-color:#898989"/>
		<stop  offset="0.8486691" style="stop-color:#272727"/>
		<stop  offset="1" style="stop-color:#000000"/>
	</linearGradient>
	
		<path id="Left_Shading_Exit_00000145016124002996195300000010285309234878007707_" style="fill:url(#Left_Shading_Exit_00000005249608995401138720000015309097323859417016_);" d="
		M992,373.2946777v-43.9962463l-32.1334229,0.064209c0,0,1.015564,22.8407288,11.7875366,40.2205505
		C972.8753662,371.5167847,981.6170044,373.2946777,992,373.2946777z"/>
	
		<linearGradient id="Outer_Cowling_00000090980194985173597780000010137387359415437987_" gradientUnits="userSpaceOnUse" x1="992" y1="105.0154419" x2="992" y2="219.1765442">
		<stop  offset="0.2347237" style="stop-color:#5E5E5E"/>
		<stop  offset="0.2858903" style="stop-color:#636363"/>
		<stop  offset="0.3468655" style="stop-color:#727272"/>
		<stop  offset="0.4128516" style="stop-color:#8A8A8A"/>
		<stop  offset="0.4818645" style="stop-color:#ABABAB"/>
		<stop  offset="0.5387074" style="stop-color:#CCCCCC"/>
	</linearGradient>
	
		<ellipse id="Outer_Cowling_00000026130197888296721810000003017157732360793252_" style="fill:url(#Outer_Cowling_00000090980194985173597780000010137387359415437987_);" cx="992" cy="153.8439484" rx="57.080555" ry="12.6206446"/>
	
		<linearGradient id="Left_Entrance_00000115505936662251207250000005615280349759337889_" gradientUnits="userSpaceOnUse" x1="937.3200073" y1="153.1949768" x2="992.1099854" y2="153.1949768">
		<stop  offset="0.0367289" style="stop-color:#3D3D3D"/>
		<stop  offset="0.1873613" style="stop-color:#424242"/>
		<stop  offset="0.3669014" style="stop-color:#515151"/>
		<stop  offset="0.5611393" style="stop-color:#696969"/>
		<stop  offset="0.7657919" style="stop-color:#8A8A8A"/>
		<stop  offset="0.9767153" style="stop-color:#B5B5B5"/>
		<stop  offset="1" style="stop-color:#BABABA"/>
	</linearGradient>
	
		<path id="Left_Entrance_00000005965787065093255270000018045367148490083214_" style="fill:url(#Left_Entrance_00000115505936662251207250000005615280349759337889_);" d="
		M992.1099854,142.7199707v20.9500122c-30.2600098,0-54.789978-4.6900024-54.789978-10.4699707
		C937.3200073,147.4099731,961.8499756,142.7199707,992.1099854,142.7199707z"/>
	
		<linearGradient id="Right_Entrance_00000106830319099779055910000013598368300300739230_" gradientUnits="userSpaceOnUse" x1="-891.1528931" y1="153.1949768" x2="-836.362915" y2="153.1949768" gradientTransform="matrix(-1 0 0 1 155.7470703 0)">
		<stop  offset="0.0367289" style="stop-color:#3D3D3D"/>
		<stop  offset="0.1873613" style="stop-color:#424242"/>
		<stop  offset="0.3669014" style="stop-color:#515151"/>
		<stop  offset="0.5611393" style="stop-color:#696969"/>
		<stop  offset="0.7657919" style="stop-color:#8A8A8A"/>
		<stop  offset="0.9767153" style="stop-color:#B5B5B5"/>
		<stop  offset="1" style="stop-color:#BABABA"/>
	</linearGradient>
	
		<path id="Right_Entrance_00000169515944384022351700000009407450589192114064_" style="fill:url(#Right_Entrance_00000106830319099779055910000013598368300300739230_);" d="
		M992.1099854,142.7199707v20.9500122c30.2600098,0,54.7900391-4.6900024,54.7900391-10.4699707
		C1046.9000244,147.4099731,1022.3699951,142.7199707,992.1099854,142.7199707z"/>
</g>
</svg>
