<svg id="Agrupar_1" data-name="Agrupar 1" xmlns="http://www.w3.org/2000/svg" width="1148" height="227" viewBox="0 0 1148 227">
  <defs>
    <style>
      .cls-1 {
        fill: #c2c2c2;
        fill-rule: evenodd;
      }

      .cls-2 {
        font-size: 34.36px;
      }

      .cls-2, .cls-3, .cls-4 {
        fill: #fff;
        text-anchor: middle;
        font-family: Ouroboros-SYSTEM-5.0-BOLDER, "Ouroboros SYSTEM V5 BOLDER";
      }

      .cls-3 {
        font-size: 32.947px;
      }

      .cls-4 {
        font-size: 23.3px;
      }
    </style>
  </defs>
  <path id="Retângulo_1" data-name="Retângulo 1" class="cls-1" d="M121,6H222V18H121V6h0Z"/>
  <path id="Retângulo_1_copiar_3" data-name="Retângulo 1 copiar 3" class="cls-1" d="M210,68h88V80H210V68h0Z"/>
  <path id="Retângulo_1_copiar_5" data-name="Retângulo 1 copiar 5" class="cls-1" d="M942,80V211H930V80h12Z"/>
  <path id="Retângulo_1_copiar_4" data-name="Retângulo 1 copiar 4" class="cls-1" d="M427,68H942V80H427V68h0Z"/>
  <path id="Retângulo_1_copiar_6" data-name="Retângulo 1 copiar 6" class="cls-1" d="M1020,68h123V80H1020V68h0Z"/>
  <path id="Retângulo_1_copiar" data-name="Retângulo 1 copiar" class="cls-1" d="M222,12V222H210V12h12Z"/>
  <path id="Retângulo_1_copiar_2" data-name="Retângulo 1 copiar 2" class="cls-1" d="M1143,222H6V210H1143v12h0Z"/>
  <text id="WEATHER" class="cls-2" transform="matrix(0.678, 0, 0, 0.678, 62.472, 21.261)"><tspan x="0">WEATHER</tspan></text>
  <text id="PROGRESS" class="cls-3" transform="translate(362.307 83.659) scale(0.707)"><tspan x="0">PROGRESS</tspan></text>
  <text id="TCAS" class="cls-4" x="981.394" y="83.725"><tspan x="981.394">TCAS</tspan></text>
</svg>
