<?xml version="1.0" encoding="utf-8"?>
<!-- Generator: Adobe Illustrator 25.2.3, SVG Export Plug-In . SVG Version: 6.00 Build 0)  -->
<svg version="1.1" id="Camada_1" xmlns="http://www.w3.org/2000/svg" xmlns:xlink="http://www.w3.org/1999/xlink" x="0px" y="0px"
	 viewBox="0 0 1080 1080" enable-background="new 0 0 1080 1080" xml:space="preserve">
<circle fill="none" stroke="#FFFFFF" stroke-width="10" stroke-miterlimit="10" cx="540" cy="540" r="532.35"/>
<path id="ANGLE_RECTANGLE" fill="#FFFFFF" d="M936.93,945.85l-60.07-59.94c-1.8-1.79-1.8-4.71-0.01-6.51l3.2-3.2
	c1.79-1.8,4.71-1.8,6.51-0.01l60.07,59.94c1.8,1.79,1.8,4.71,0.01,6.51l-3.2,3.2C941.64,947.64,938.73,947.64,936.93,945.85z"/>
<path id="ANGLE_RECTANGLE_1_" fill="#FFFFFF" d="M886.56,201.85l60.07-59.94c1.8-1.79,1.8-4.71,0.01-6.51l-3.2-3.2
	c-1.79-1.8-4.71-1.8-6.51-0.01l-60.07,59.94c-1.8,1.79-1.8,4.71-0.01,6.51l3.2,3.2C881.85,203.64,884.76,203.64,886.56,201.85z"/>
<path id="ANGLE_RECTANGLE_2_" fill="#FFFFFF" d="M140.56,132.19l60.07,59.94c1.8,1.79,1.8,4.71,0.01,6.51l-3.2,3.2
	c-1.79,1.8-4.71,1.8-6.51,0.01l-60.07-59.94c-1.8-1.79-1.8-4.71-0.01-6.51l3.2-3.2C135.85,130.4,138.76,130.4,140.56,132.19z"/>
<path id="ANGLE_RECTANGLE_3_" fill="#FFFFFF" d="M190.93,876.19l-60.07,59.94c-1.8,1.79-1.8,4.71-0.01,6.51l3.2,3.2
	c1.79,1.8,4.71,1.8,6.51,0.01l60.07-59.94c1.8-1.79,1.8-4.71,0.01-6.51l-3.2-3.2C195.64,874.4,192.73,874.4,190.93,876.19z"/>
</svg>
