<?xml version="1.0" encoding="utf-8"?>
<!-- Generator: Adobe Illustrator 26.0.3, SVG Export Plug-In . SVG Version: 6.00 Build 0)  -->
<svg version="1.1" id="Camada_3" xmlns="http://www.w3.org/2000/svg" xmlns:xlink="http://www.w3.org/1999/xlink" x="0px" y="0px"
	 viewBox="0 0 1080 1440" style="enable-background:new 0 0 1080 1440;" xml:space="preserve">
<style type="text/css">
	.st0{fill:#999999;}
	.st1{fill:#606060;}
	.st2{fill:#828282;}
	.st3{fill:url(#Right_Side_Shading_00000102545135785093801460000005318123782043566745_);}
	.st4{fill:url(#Left_Side_Shading_00000124852535606756944980000006747609898404053947_);}
	.st5{fill:url(#SVGID_1_);}
	.st6{fill:url(#SVGID_00000142881012885233783740000010816799956033458591_);}
	.st7{fill:#898989;}
	.st8{fill:url(#SVGID_00000140007154253941368460000009462440751009629608_);}
	.st9{fill:url(#SVGID_00000043456929785975995200000001643383073843745177_);}
	.st10{fill:url(#SVGID_00000003097171419340924280000012727446153471560378_);}
	.st11{fill:url(#SVGID_00000054246952177648034850000014480559379530421674_);}
	.st12{fill:#6B6B6B;}
	.st13{fill:#585858;}
	.st14{fill:#9D9D9D;}
	.st15{fill:#B2B2B2;}
</style>
<g id="LEFT_WING_00000116951398251591702530000010804285326917504919_">
	<path id="LEFT_WING" class="st0" d="M55.2483902,433.4899292l422.9714355,38.6442566
		c0,0,25.9833984,10.4516296,61.7041931,10.4516296v-53.0293579h-61.7041931H55.2483902
		c0,0-1.4866982-0.0664062-1.4866982,1.9335327S55.2483902,433.4899292,55.2483902,433.4899292z"/>
	<polygon id="LEFT_WING_DARKER" class="st1" points="478.2198181,457.1416016 476.7698059,468.5116882 148.7155762,438.5953674 	"/>
</g>
<g id="RIGHT_WING_00000017494581859811876220000003775445387810850731_">
	<path id="RIGHT_WING_00000096761072814739046660000017971163505678822057_" class="st0" d="M1024.7515869,433.4899292
		l-422.9713745,38.6442566c0,0-25.9833984,10.4516296-61.7042236,10.4516296v-53.0293579h61.7042236h422.9713745
		c0,0,1.4866943-0.0664062,1.4866943,1.9335327S1024.7515869,433.4899292,1024.7515869,433.4899292z"/>
	<polygon id="RIGHT_WING_DARKER_00000096778238891687495250000011770402285906315663_" class="st1" points="
		601.7802124,457.1416016 603.2301636,468.5116882 931.2844238,438.5953674 	"/>
</g>
<path class="st0" d="M478.2198181,472.1341858c0,0,30.160614,10.4516296,61.7041931,10.4516296
	c31.5436401,0,62.0081177-10.4516296,62.0081177-10.4516296l-1.5267334-116.0005493l-4.1555786-18.7681274
	c0,0-10.640625-39.6743469-56.3258057-39.6743469s-56.5204468,39.6743469-56.5204468,39.6743469l-3.3447876,18.7681274
	L478.2198181,472.1341858z"/>
<path class="st2" d="M479.4406128,470.5158997c0,0,29.5653381,10.2453613,60.4863892,10.2453613
	s60.7843628-10.2453613,60.7843628-10.2453613l-1.4966431-113.7111511l-4.0735474-18.3977051
	c0,0-10.430603-38.8913269-55.2141724-38.8913269s-55.4049683,38.8913269-55.4049683,38.8913269l-3.2787476,18.3977051
	L479.4406128,470.5158997z"/>
<linearGradient id="Right_Side_Shading_00000088822823289810351540000002944935306661888909_" gradientUnits="userSpaceOnUse" x1="581.5452271" y1="423.322052" x2="560.4035645" y2="363.290863">
	<stop  offset="0.2691714" style="stop-color:#828282"/>
	<stop  offset="1" style="stop-color:#000000"/>
</linearGradient>
<path id="Right_Side_Shading" style="fill:url(#Right_Side_Shading_00000088822823289810351540000002944935306661888909_);" d="
	M599.2902832,362.5443726c0,0-18.2896729,54.1911316-59.2142944,54.1911316h59.9274902L599.2902832,362.5443726z"/>
<linearGradient id="Left_Side_Shading_00000119105810182458697940000011649488996566452668_" gradientUnits="userSpaceOnUse" x1="518.6184692" y1="423.2236328" x2="497.1686401" y2="362.3175049" gradientTransform="matrix(-1 0 0 1 1016.9421997 0)">
	<stop  offset="0.2691714" style="stop-color:#828282"/>
	<stop  offset="1" style="stop-color:#000000"/>
</linearGradient>
<path id="Left_Side_Shading" style="fill:url(#Left_Side_Shading_00000119105810182458697940000011649488996566452668_);" d="
	M480.545105,361.6394043c0,0,18.6062317,55.0960999,59.5308838,55.0960999h-59.9275513L480.545105,361.6394043z"/>
<linearGradient id="SVGID_1_" gradientUnits="userSpaceOnUse" x1="511.1087646" y1="410.0785522" x2="502.0858459" y2="470.3511353">
	<stop  offset="0.2691714" style="stop-color:#828282"/>
	<stop  offset="1" style="stop-color:#2D2D2D"/>
</linearGradient>
<path class="st5" d="M480.5111694,468.739624c0,0,31.5220337-52.0041199,59.5648193-52.0041199h-59.9275513L480.5111694,468.739624z
	"/>
<linearGradient id="SVGID_00000095316888225334034400000000172483258720787328_" gradientUnits="userSpaceOnUse" x1="524.1409302" y1="410.0785522" x2="515.118042" y2="470.3511353" gradientTransform="matrix(-1 0 0 1 1093.184082 0)">
	<stop  offset="0.2691714" style="stop-color:#828282"/>
	<stop  offset="1" style="stop-color:#2D2D2D"/>
</linearGradient>
<path style="fill:url(#SVGID_00000095316888225334034400000000172483258720787328_);" d="M599.6407471,468.739624
	c0,0-31.5219727-52.0041199-59.5647583-52.0041199h59.9274902L599.6407471,468.739624z"/>
<path class="st7" d="M599.6365967,356.8652039c0,32.9400024-26.7000122,59.6400146-59.6400146,59.6400146h-0.0700073V297.2251892
	h0.0700073C572.9365845,297.2251892,599.6365967,323.9252014,599.6365967,356.8652039z"/>
<path class="st7" d="M599.6365967,356.8652039c0,32.9400024-26.7000122,59.6400146-59.6400146,59.6400146
	s-59.6400146-26.7000122-59.6400146-59.6400146H599.6365967z"/>
<linearGradient id="SVGID_00000057120422189348091430000013350918502090535303_" gradientUnits="userSpaceOnUse" x1="522.9250488" y1="308.9476929" x2="589.927124" y2="355.0383606">
	<stop  offset="0.2851903" style="stop-color:#D3D3D3"/>
	<stop  offset="0.6285614" style="stop-color:#999999"/>
</linearGradient>
<path style="fill:url(#SVGID_00000057120422189348091430000013350918502090535303_);" d="M599.6365967,356.8652039h-59.710022
	v-59.6400146h0.0700073C572.9365845,297.2251892,599.6365967,323.9252014,599.6365967,356.8652039z"/>
<linearGradient id="SVGID_00000116202446119170093300000002151147711721659046_" gradientUnits="userSpaceOnUse" x1="505.6514282" y1="308.9476929" x2="572.6535034" y2="355.0383606" gradientTransform="matrix(-1 0 0 1 1062.5795898 0)">
	<stop  offset="0.2851903" style="stop-color:#D3D3D3"/>
	<stop  offset="0.649087" style="stop-color:#999999"/>
</linearGradient>
<path style="fill:url(#SVGID_00000116202446119170093300000002151147711721659046_);" d="M480.2165527,356.8652039h59.710022
	v-59.6400146h-0.0700073C506.9165649,297.2251892,480.2165527,323.9252014,480.2165527,356.8652039z"/>
<linearGradient id="SVGID_00000023966786972563941620000012566623820899493513_" gradientUnits="userSpaceOnUse" x1="489.2625122" y1="352.6147766" x2="526.7282104" y2="384.8851013">
	<stop  offset="0.6485574" style="stop-color:#999999"/>
	<stop  offset="1" style="stop-color:#2D2D2D"/>
</linearGradient>
<path style="fill:url(#SVGID_00000023966786972563941620000012566623820899493513_);" d="M480.2165527,356.8652039
	c0,32.9400024,26.7000122,59.6400146,59.6400146,59.6400146h0.0700073v-59.6400146H480.2165527z"/>
<linearGradient id="SVGID_00000114055769710326314950000002838437286794779562_" gradientUnits="userSpaceOnUse" x1="457.0986023" y1="352.8450623" x2="494.5643311" y2="385.115387" gradientTransform="matrix(-1 0 0 1 1047.6893311 0)">
	<stop  offset="0.6485574" style="stop-color:#999999"/>
	<stop  offset="1" style="stop-color:#2D2D2D"/>
</linearGradient>
<path style="fill:url(#SVGID_00000114055769710326314950000002838437286794779562_);" d="M599.6365967,357.0954895
	c0,32.9400024-26.7000122,59.6400146-59.6400146,59.6400146h-0.0700073v-59.6400146H599.6365967z"/>
<path id="Mountain_Middle_Outline" class="st12" d="M480.3609619,468.4777832c0,0,26.1276245,10.7548218,59.5682983,10.7548218
	c33.4407349,0,59.8617554-10.7548218,59.8617554-10.7548218s-30.4226074-53.3018188-59.7150269-53.3018188
	S480.3609619,468.4777832,480.3609619,468.4777832z"/>
<path id="Mountain_Middle" class="st13" d="M480.5111694,468.739624c0,0,26.0619202,10.492981,59.418457,10.492981
	s59.7111206-10.492981,59.7111206-10.492981s-30.3460693-52.0041199-59.5647583-52.0041199
	C510.8572388,416.7355042,480.5111694,468.739624,480.5111694,468.739624z"/>
<circle id="Outline_Circle" class="st14" cx="539.9240112" cy="347.7853699" r="13.4191179"/>
<circle id="Inside_Circle" class="st15" cx="539.9240112" cy="347.7853699" r="10.4525785"/>
<path class="st0" d="M480.0587769,356.1336365l-126.1905823-13.0769653c0,0-1.2429199-0.2367554-1.2429199-1.2429199
	c0-1.0061951,1.4796753-1.2429504,1.4796753-1.2429504l129.5006409-3.8692017L480.0587769,356.1336365z"/>
<path class="st0" d="M600.2455444,356.1336365l126.1906128-13.0769653c0,0,1.2429199-0.2367554,1.2429199-1.2429199
	c0-1.0061951-1.4796753-1.2429504-1.4796753-1.2429504l-130.15448-3.8887329L600.2455444,356.1336365z"/>
<polygon id="Darker" class="st13" points="504.0186157,348.0910034 497.7791138,354.3305054 355.8304443,342.4364624 "/>
<polygon id="Darker_00000148636038132637150180000005537914141354655616_" class="st13" points="577.5186768,348.0910034 
	583.7581787,354.3305054 725.7068481,342.4364624 "/>
<path class="st0" d="M549.4265747,298.0652161l-4.6799927,8.0200195l-3.1099854,5.3399658
	c-0.7000122,1.2000122-2.4299927,1.2000122-3.1199951,0l-3.1199951-5.3399658l-4.6700439-8.0200195l4.6700439-84.3699951
	l2.7699585-49.9500122c0.1199951-2.1300049,3.7000122-2.1300049,3.8200073,0l2.7600098,49.9500122L549.4265747,298.0652161z"/>
<polygon class="st13" points="540.0765991,311.0166931 548.418335,297.6911621 540.0765991,165.1411133 "/>
</svg>
