<?xml version="1.0" encoding="utf-8"?>
<!-- Generator: Adobe Illustrator 26.0.3, SVG Export Plug-In . SVG Version: 6.00 Build 0)  -->
<svg version="1.1" id="Camada_1" xmlns="http://www.w3.org/2000/svg" xmlns:xlink="http://www.w3.org/1999/xlink" x="0px" y="0px"
	 viewBox="0 0 1080 1440" style="enable-background:new 0 0 1080 1440;" xml:space="preserve">
<style type="text/css">
	.st0{fill:url(#SVGID_1_);}
	.st1{fill:url(#SVGID_00000101072379699697883760000016597885220834528687_);}
	.st2{fill:#515151;}
	.st3{fill:url(#SVGID_00000107574651090526486290000012642891783590298518_);}
	.st4{fill:url(#SVGID_00000158732814381545894910000000837660558644491154_);}
	.st5{fill:#FFFFFF;}
	.st6{fill:url(#Spmbra_Asa_Esquerda_00000088099583514920289890000004062151890516007612_);}
	.st7{fill:url(#Sombra_Asa_Direita_00000137098119030402778830000015206325437498739865_);}
	.st8{fill:url(#Sombra_Profundor_Direito_00000064324632232920350400000005957396676504520867_);}
	.st9{fill:url(#Sombra_Profundor_Esquerdo_00000128479802949929207240000009106563475411275438_);}
	.st10{fill:url(#Sonbra_Fuselagem_Esquerda_00000016781247408668222500000007587193280083774382_);}
	.st11{fill:url(#Sombra_Fuselagem_Direita_00000012472042878957806070000009476907325921560480_);}
</style>
<g id="MOTORES">
	
		<linearGradient id="SVGID_1_" gradientUnits="userSpaceOnUse" x1="657.16168" y1="927.6391" x2="712.46765" y2="927.6391" gradientTransform="matrix(1 0 0 -1 0 1442)">
		<stop  offset="0.3396" style="stop-color:#FFFFFF"/>
		<stop  offset="0.39836" style="stop-color:#F2F2F2"/>
		<stop  offset="0.50637" style="stop-color:#D1D1D1"/>
		<stop  offset="0.65164" style="stop-color:#9A9A9A"/>
		<stop  offset="0.82635" style="stop-color:#505050"/>
		<stop  offset="1" style="stop-color:#000000"/>
	</linearGradient>
	<path class="st0" d="M695.25531,539.45898h-34.50989c-1.97925,0-3.58374-1.60455-3.58374-3.5838v-46.6123h38.09363V539.45898z"/>
	
		<linearGradient id="SVGID_00000117643059832787657990000002028425626726100145_" gradientUnits="userSpaceOnUse" x1="657.16168" y1="952.73712" x2="721.09003" y2="952.73712" gradientTransform="matrix(1 0 0 -1 0 1442)">
		<stop  offset="0" style="stop-color:#FFFFFF"/>
		<stop  offset="0.08898" style="stop-color:#F2F2F2"/>
		<stop  offset="0.25253" style="stop-color:#D1D1D1"/>
		<stop  offset="0.4725" style="stop-color:#9A9A9A"/>
		<stop  offset="0.73705" style="stop-color:#505050"/>
		<stop  offset="1" style="stop-color:#000000"/>
	</linearGradient>
	
		<ellipse style="fill:url(#SVGID_00000117643059832787657990000002028425626726100145_);" cx="676.2085" cy="489.26288" rx="19.04682" ry="6.40373"/>
	<ellipse class="st2" cx="676.2085" cy="488.26038" rx="11.83189" ry="3.978"/>
</g>
<g id="MOTORES_cópia">
	
		<linearGradient id="SVGID_00000146464778759410236010000006470224108130058630_" gradientUnits="userSpaceOnUse" x1="879.61896" y1="927.6391" x2="967.83783" y2="927.6391" gradientTransform="matrix(1 0 0 -1 0 1442)">
		<stop  offset="0.28116" style="stop-color:#FFFFFF"/>
		<stop  offset="0.32986" style="stop-color:#F2F2F2"/>
		<stop  offset="0.41937" style="stop-color:#D1D1D1"/>
		<stop  offset="0.53977" style="stop-color:#9A9A9A"/>
		<stop  offset="0.68456" style="stop-color:#505050"/>
		<stop  offset="0.82848" style="stop-color:#000000"/>
	</linearGradient>
	<path style="fill:url(#SVGID_00000146464778759410236010000006470224108130058630_);" d="M892.95557,539.45898h34.50989
		c1.97925,0,3.58374-1.60455,3.58374-3.5838v-46.6123h-38.09363V539.45898z"/>
	
		<linearGradient id="SVGID_00000067217349639528738900000010657977620909123468_" gradientUnits="userSpaceOnUse" x1="892.95557" y1="952.73712" x2="956.88397" y2="952.73712" gradientTransform="matrix(1 0 0 -1 0 1442)">
		<stop  offset="0" style="stop-color:#FFFFFF"/>
		<stop  offset="0.08898" style="stop-color:#F2F2F2"/>
		<stop  offset="0.25253" style="stop-color:#D1D1D1"/>
		<stop  offset="0.4725" style="stop-color:#9A9A9A"/>
		<stop  offset="0.73705" style="stop-color:#505050"/>
		<stop  offset="1" style="stop-color:#000000"/>
	</linearGradient>
	
		<ellipse style="fill:url(#SVGID_00000067217349639528738900000010657977620909123468_);" cx="912.00238" cy="489.26288" rx="19.04684" ry="6.40373"/>
	<ellipse class="st2" cx="912.00238" cy="488.26038" rx="11.83191" ry="3.978"/>
</g>
<path id="Entire_Plane_00000026849517666099132690000016535438464612460194_" class="st5" d="M819.97791,775.59589l-0.03009,0.11029
	l64.35126,46.82739l2.17548,34.39606l-79.5293-28.45123l-7.91974,28.43115h-0.03009v0.02008h-8.99249l-8.33093-29.89478h-0.01001
	l-80.70215,29.89478l3.60901-34.39606l64.48145-46.91754V592.64771H724.4787l-180.77283,45.0127v-45.0127l225.34442-106.35645
	V332.4259c0,0,0.02008-0.23056,0.08026-0.64163c0.01001-0.08023,0.02008-0.16037,0.03009-0.25064
	c0.01007-0.07016,0.02008-0.15033,0.03015-0.23056c0.01996-0.16043,0.05005-0.33084,0.07013-0.5213
	c0.0199-0.16037,0.03998-0.32083,0.07007-0.49124c0.02008-0.17041,0.05017-0.35083,0.07025-0.55136c0,0,0,0,0-0.01004
	c0.02008-0.1203,0.04016-0.25061,0.06012-0.38095c0,0,0-0.01004,0-0.02008c0.02008-0.13031,0.04016-0.26065,0.06006-0.40094
	c-0.00989-0.01004-0.00989-0.01004,0-0.02008c0.09033-0.57144,0.19055-1.20303,0.29077-1.88474
	c0.06024-0.34082,0.11041-0.69174,0.17047-1.06265c0.03009-0.19049,0.06012-0.38095,0.09021-0.57144
	c0.10034-0.5614,0.20044-1.16287,0.30078-1.78442c0.03009-0.21057,0.07025-0.41107,0.11029-0.62158
	c0.1203-0.68176,0.25061-1.38345,0.39099-2.10529c0.02008-0.11026,0.0401-0.21051,0.06018-0.32083
	c0.26068-1.3634,0.55133-2.77692,0.87207-4.22052c0.11041-0.52133,0.22052-1.04266,0.34094-1.5639
	c0.66156-2.95743,1.39337-5.96497,2.16534-8.71182c0.09033-0.30081,0.17047-0.60156,0.26068-0.90231
	c0.01001-0.04007,0.02008-0.07016,0.03009-0.10022c0.96234-3.16797,2.05518-6.14539,3.28827-8.60156
	c0-0.02005,0.01001-0.04007,0.02008-0.05011c0.02002-0.07019,0.06018-0.1203,0.09015-0.19049
	c3.06763-6.04517,9.604-15.13794,16.44122-15.09781c0.23053,0,0.46112,0.01004,0.69165,0.0401v-0.0401
	c2.51636,0.14038,9.92493,2.33582,15.17804,14.6066c0.03009,0.06015,0.05017,0.1203,0.0802,0.18045
	c1.29327,3.05765,2.36603,5.86465,3.26819,8.42105c0.02008,0.04013,0.03009,0.09027,0.05017,0.13034
	c2.72681,7.76947,3.81958,13.21307,4.44104,16.38104c1.25311,6.46622,1.82465,11.53894,1.82465,11.53894v153.98566
	l226.10632,106.28625v45.0127l-183.60986-45.0127h-42.49646V775.59589z"/>
<linearGradient id="Spmbra_Asa_Esquerda_00000132073765879630387330000002431684956218737085_" gradientUnits="userSpaceOnUse" x1="647.47076" y1="914.51233" x2="673.7558" y2="858.495" gradientTransform="matrix(1 0 0 -1 0 1442)">
	<stop  offset="0.08309" style="stop-color:#000000"/>
	<stop  offset="0.3257" style="stop-color:#FFFFFF"/>
</linearGradient>
<polygon id="Spmbra_Asa_Esquerda_00000116222053508422501510000018322529384858228378_" style="fill:url(#Spmbra_Asa_Esquerda_00000132073765879630387330000002431684956218737085_);" points="
	543.70874,592.64496 769.05133,486.29028 769.05133,500.84195 543.70874,606.65912 "/>
<linearGradient id="Sombra_Asa_Direita_00000000920885549889684670000004321813991621982348_" gradientUnits="userSpaceOnUse" x1="1216.55542" y1="914.35974" x2="1242.69775" y2="858.64655" gradientTransform="matrix(-1 0 0 -1 2158.10376 1442)">
	<stop  offset="0.08309" style="stop-color:#000000"/>
	<stop  offset="0.3257" style="stop-color:#FFFFFF"/>
</linearGradient>
<polygon id="Sombra_Asa_Direita_00000016774635496930687650000008789609284131109785_" style="fill:url(#Sombra_Asa_Direita_00000000920885549889684670000004321813991621982348_);" points="
	1046.08228,592.64496 819.82593,486.29028 819.82593,500.84195 1046.08228,605.62122 "/>
<linearGradient id="Sombra_Profundor_Direito_00000101803396774522849290000014664211695976104847_" gradientUnits="userSpaceOnUse" x1="1271.37329" y1="685.84204" x2="1374.18091" y2="544.68024" gradientTransform="matrix(-1 0 0 -1 2158.10376 1442)">
	<stop  offset="0.27684" style="stop-color:#000000"/>
	<stop  offset="0.33977" style="stop-color:#FFFFFF"/>
</linearGradient>
<polygon id="Sombra_Profundor_Direito_00000111178635039311351020000014020286933857283981_" style="fill:url(#Sombra_Profundor_Direito_00000101803396774522849290000014664211695976104847_);" points="
	884.30402,822.53772 819.82587,775.61548 818.33826,781.67688 884.84656,831.15173 "/>
<linearGradient id="Sombra_Profundor_Esquerdo_00000008869981542971710890000010892918949491163069_" gradientUnits="userSpaceOnUse" x1="313.6441" y1="684.29987" x2="413.09384" y2="547.74866" gradientTransform="matrix(1 0 0 -1 389.44678 1442)">
	<stop  offset="0.27684" style="stop-color:#000000"/>
	<stop  offset="0.33977" style="stop-color:#FFFFFF"/>
</linearGradient>
<polygon id="Sombra_Profundor_Esquerdo_00000096748327342622766530000009076308292836533427_" style="fill:url(#Sombra_Profundor_Esquerdo_00000008869981542971710890000010892918949491163069_);" points="
	704.57855,822.53778 769.0567,775.6156 770.54437,781.677 703.66742,831.15186 "/>
<linearGradient id="Sonbra_Fuselagem_Esquerda_00000155135918108879195370000014571517866118446763_" gradientUnits="userSpaceOnUse" x1="798.99542" y1="872.97656" x2="720.79327" y2="872.97656" gradientTransform="matrix(1 0 0 -1 0 1442)">
	<stop  offset="0.17532" style="stop-color:#FFFFFF"/>
	<stop  offset="0.28503" style="stop-color:#E4E4E4"/>
	<stop  offset="0.52191" style="stop-color:#9D9D9D"/>
	<stop  offset="0.86488" style="stop-color:#2E2E2E"/>
	<stop  offset="1" style="stop-color:#000000"/>
</linearGradient>
<path id="Sonbra_Fuselagem_Esquerda_00000083056583888906148110000015529978866744628377_" style="fill:url(#Sonbra_Fuselagem_Esquerda_00000155135918108879195370000014571517866118446763_);" d="
	M798.99542,856.90955v0.02008h-8.99249l-8.33093-29.89478h-0.01001L769.05029,775.646V332.4259c0,0,0.02008-0.23056,0.08026-0.64163
	c0.01001-0.08023,0.02008-0.16037,0.03009-0.25064c0.01007-0.07016,0.02008-0.15033,0.03015-0.23056
	c0.01996-0.16043,0.05005-0.33084,0.07013-0.5213c0.0199-0.16037,0.03998-0.32083,0.07007-0.49124
	c0.02008-0.17041,0.05017-0.35083,0.07025-0.55136c0,0,0,0,0-0.01004c0.02008-0.1203,0.04016-0.25061,0.06012-0.38095
	c0,0,0-0.01004,0-0.02008c0.02008-0.13031,0.04016-0.26065,0.06006-0.40094c-0.00989-0.01004-0.00989-0.01004,0-0.02008
	c0.09033-0.57144,0.19055-1.20303,0.29077-1.88474c0.06024-0.34082,0.11041-0.69174,0.17047-1.06265
	c0.03009-0.19049,0.06012-0.38095,0.09021-0.57144c0.10034-0.5614,0.20044-1.16287,0.30078-1.78442
	c0.03009-0.21057,0.07025-0.41107,0.11029-0.62158c0.1203-0.68176,0.25061-1.38345,0.39099-2.10529
	c0.02008-0.11026,0.0401-0.21051,0.06018-0.32083c0.26068-1.3634,0.55133-2.77692,0.87207-4.22052
	c0.11041-0.52133,0.22052-1.04266,0.34094-1.5639c0.66156-2.95743,1.39337-5.96497,2.16534-8.71182
	c0.09033-0.30081,0.17047-0.60156,0.26068-0.90231c0.01001-0.04007,0.02008-0.07016,0.03009-0.10022
	c0.96234-3.16797,2.05518-6.14539,3.28827-8.60156c0-0.02005,0.01001-0.04007,0.02008-0.05011
	c0.02002-0.07019,0.06018-0.1203,0.09015-0.19049c3.06763-6.04517,9.604-15.13794,16.44122-15.09781
	c0.23053,0,0.46112,0.01004,0.69165,0.0401v575.75208H798.99542z"/>
<linearGradient id="Sombra_Fuselagem_Direita_00000030484062766178556500000013165389626614891653_" gradientUnits="userSpaceOnUse" x1="795.13562" y1="872.98651" x2="1102.87366" y2="872.98651" gradientTransform="matrix(1 0 0 -1 0 1442)">
	<stop  offset="0.02318" style="stop-color:#FFFFFF"/>
	<stop  offset="0.04119" style="stop-color:#F0F0F0"/>
	<stop  offset="0.07575" style="stop-color:#C9C9C9"/>
	<stop  offset="0.12333" style="stop-color:#8A8A8A"/>
	<stop  offset="0.18147" style="stop-color:#343434"/>
	<stop  offset="0.21482" style="stop-color:#000000"/>
</linearGradient>
<path id="Sombra_Fuselagem_Direita_00000054977883063755247410000015215662013012450970_" style="fill:url(#Sombra_Fuselagem_Direita_00000030484062766178556500000013165389626614891653_);" d="
	M819.97791,332.37579v443.22009l-0.03009,0.11029l-12.59149,51.30859l-0.41107,1.46362l-7.91974,28.43115h-3.88989V281.11737
	c2.51636,0.14038,9.92493,2.33582,15.17804,14.6066c0.03009,0.06015,0.05017,0.1203,0.0802,0.18045
	c1.29327,3.05765,2.36603,5.86469,3.26819,8.42105c0.02008,0.04016,0.03009,0.09027,0.05017,0.13034
	c2.72681,7.76947,3.81958,13.2131,4.44104,16.38107C819.40637,327.30307,819.97791,332.37579,819.97791,332.37579z"/>
<g id="COCKPIT_WINDOWS">
	<path d="M778.21552,317.84384l4.61163,12.62787l-4.52441,8.5675l-4.23535-6.64102c0,0-0.94812-2.70258,0-5.42847
		C775.01556,324.2438,778.21552,317.84384,778.21552,317.84384z"/>
	<path d="M780.29456,314.91461l4.61865,13.79016c0,0,5.84802-5.03082,7.77802-5.03082v-15.73712
		C792.69122,307.93683,785.63922,307.78836,780.29456,314.91461z"/>
	<path d="M812.16516,317.84384l-4.61157,12.62787l4.52441,8.5675l4.23529-6.64102c0,0,0.94818-2.70258,0-5.42847
		C815.36517,324.2438,812.16516,317.84384,812.16516,317.84384z"/>
	<path d="M810.08618,314.91461l-4.61865,13.79016c0,0-5.84802-5.03082-7.77808-5.03082v-15.73712
		C797.68945,307.93683,804.74146,307.78836,810.08618,314.91461z"/>
</g>
</svg>
